<svg width="217" height="33" viewBox="0 0 217 33" fill="none" xmlns="http://www.w3.org/2000/svg">
<path d="M1.7568 1.68636C0.0798781 3.29941 2.4511e-05 4.03261 2.4511e-05 16.5704C2.4511e-05 33.8006 -0.718657 32.9941 14.5334 32.9941C20.5224 32.9941 26.0323 32.7741 26.7509 32.5542C29.6257 31.5277 30.3443 28.3749 30.3443 16.497C30.3443 4.61917 29.6257 1.4664 26.7509 0.439922C26.0323 0.219959 20.5224 0 14.4535 0C3.9927 0 3.35387 0.0733185 1.7568 1.68636ZM17.0887 11.3646C17.7275 13.051 16.7693 14.664 15.0923 14.664C13.3356 14.664 12.3773 13.051 13.096 11.3646C13.3356 10.7781 14.2139 10.2648 15.0923 10.2648C15.8909 10.2648 16.7693 10.7781 17.0887 11.3646ZM15.1722 15.6905C15.811 15.6905 17.4879 15.3972 18.9253 15.104C21.2411 14.5907 21.5605 14.7374 22.0396 16.4237C22.2791 17.4502 22.2791 19.1366 22.0396 20.0897C21.6403 21.5561 20.9216 21.9227 17.8074 22.2893C15.6513 22.5093 12.6967 22.436 11.1795 22.1427C8.78391 21.6295 8.38464 21.2629 8.14508 19.1366C7.74581 15.2506 8.38464 14.4441 11.3392 15.104C12.7766 15.3972 14.5334 15.6905 15.1722 15.6905Z" fill="#283104"/>
<path d="M44.6652 8.50456C44.3458 8.7979 44.1062 9.6779 44.1062 10.4112C44.1062 11.3646 44.6652 11.7312 46.1824 11.7312C47.8593 11.7312 48.1788 11.4379 47.9392 10.1179C47.6996 8.43123 45.7832 7.55123 44.6652 8.50456Z" fill="#283104"/>
<path d="M32.9267 25.6621H37.3187C41.1517 25.6621 41.7106 25.5154 41.7106 24.1957C41.7106 23.0225 41.1517 22.7293 39.315 22.7293H36.9194V16.497C36.9194 10.3381 36.9194 10.2648 34.9231 10.2648H32.9267V25.6621Z" fill="#283104"/>
<path d="M51.7722 11.5113C51.5326 12.2445 50.8938 13.4176 50.3348 14.1508C49.4564 15.2506 49.5363 15.6172 50.7341 16.4237C51.6923 17.0836 52.0916 18.4034 52.0916 20.7496C52.0916 24.3423 53.3692 25.6621 56.8029 25.6621C58.7993 25.6621 59.1187 23.0959 57.2821 22.436C56.4835 22.216 56.0843 21.0429 56.0843 19.0633C56.0843 16.937 56.4037 16.1304 57.2821 16.1304C58.7993 16.1304 58.8791 14.0042 57.2821 13.4909C56.6432 13.271 55.9245 12.4644 55.685 11.6579C55.0462 9.89823 52.411 9.82491 51.7722 11.5113Z" fill="#283104"/>
<path d="M129.744 18.9634C129.744 26.6621 129.744 26.6621 131.66 26.6621C133.417 26.6621 133.656 26.2955 133.896 23.5093C134.136 20.5032 134.215 20.4299 137.17 20.2099L140.125 19.9899V23.2893C140.125 26.3688 140.284 26.6621 142.121 26.6621H144.117V11.2648H142.121C140.364 11.2648 140.125 11.5581 140.125 14.1976V17.1304H133.736V14.1976C133.736 11.5581 133.577 11.2648 131.74 11.2648H129.744V18.9634Z" fill="#283104"/>
<path d="M44.6652 13.6376C44.3458 13.9308 44.1062 16.7903 44.1062 19.9431C44.1062 25.5888 44.1062 25.6621 46.1026 25.6621C48.1788 25.6621 48.1788 25.6621 47.9392 19.6498C47.7795 14.884 47.4601 13.5642 46.5018 13.3443C45.7831 13.271 44.9846 13.3443 44.6652 13.6376Z" fill="#283104"/>
<path d="M62.5106 13.9308C58.6777 15.3239 57.8791 20.8963 61.0733 23.8291C63.948 26.5419 69.4579 26.2486 71.1348 23.3158C71.9333 21.9961 71.7736 21.9227 67.781 22.1427C64.9861 22.2893 63.5487 22.0694 63.3092 21.4095C63.0696 20.7496 64.1875 20.5297 67.3817 20.5297C69.7773 20.5297 71.9333 20.2364 72.1729 19.8698C73.0513 18.6233 70.9751 14.884 68.9788 14.0042C66.663 13.051 64.9861 13.051 62.5106 13.9308ZM67.7011 17.3769C67.8608 18.0368 67.1421 18.3301 65.4652 18.3301C63.2293 18.3301 62.9897 18.1834 63.8681 17.2302C65.0659 15.9105 67.1421 16.0571 67.7011 17.3769Z" fill="#283104"/>
<path d="M74.6483 14.0775C74.4088 14.664 74.2491 17.4502 74.4088 20.2364C74.6483 25.0755 74.7282 25.2955 76.6447 25.2955C78.4813 25.2955 78.641 25.0022 78.8806 21.4828C79.1201 18.1834 79.3597 17.6702 80.8769 17.4502C81.9949 17.3036 82.7135 16.6437 82.8733 15.5439C83.1128 14.1508 82.7934 13.9308 80.8769 14.0042C79.6791 14.0042 77.8425 13.8575 76.8842 13.5642C75.6066 13.1976 74.8879 13.3443 74.6483 14.0775Z" fill="#283104"/>
<path d="M87.2652 14.0042C85.1092 14.7374 83.5919 18.4767 84.2308 21.1162C85.0293 24.7089 86.7861 25.5888 92.855 25.5154H98.285L97.8059 13.6376L93.3341 13.5642C90.8586 13.4909 88.0638 13.7109 87.2652 14.0042ZM93.7333 18.0368C94.5319 20.0164 94.2923 21.1895 92.6952 21.9961C91.8169 22.3627 90.6191 22.5093 89.9004 22.2893C88.2235 21.7028 87.5048 19.2099 88.6227 17.9634C89.9004 16.497 93.0945 16.5704 93.7333 18.0368Z" fill="#283104"/>
<path d="M100.958 13.7109C100.639 13.9308 100.399 16.7903 100.399 19.9431C100.399 25.5888 100.399 25.6621 102.396 25.6621C104.232 25.6621 104.392 25.4421 104.392 21.9961C104.392 18.6967 104.632 18.1834 106.388 17.5968C107.506 17.2302 108.385 16.3504 108.385 15.5439C108.385 13.6376 107.586 13.1243 105.909 13.9308C104.951 14.4441 104.312 14.4441 103.993 13.9308C103.434 13.1243 101.757 12.9777 100.958 13.7109Z" fill="#283104"/>
<path d="M110.062 13.3955C109.742 13.6155 110.701 16.255 112.058 19.2611C114.294 24.1736 114.454 24.9801 113.575 27.1064C112.058 30.6991 112.058 30.9191 114.214 30.9191C115.971 30.9191 116.61 30.0392 120.043 22.5605C122.758 16.6216 123.637 13.9821 122.998 13.3955C121.72 12.2224 119.644 13.6888 118.686 16.4017C117.328 19.921 116.769 19.9943 115.332 16.9149C113.735 13.3955 111.579 11.9291 110.062 13.3955Z" fill="#283104"/>
<path d="M162.829 13.9171C160.353 15.9168 159.954 21.0359 162.03 23.7554C163.547 25.675 164.186 25.835 169.297 25.835L174.886 25.755V19.5161C174.886 15.9968 174.647 13.1973 174.327 13.1173C167.54 12.4774 164.346 12.7174 162.829 13.9171ZM169.936 17.6765C170.335 18.3963 170.495 19.6761 170.335 20.476C169.536 23.2755 165.783 23.1955 164.905 20.316C163.867 17.1166 168.338 14.877 169.936 17.6765Z" fill="#283104"/>
<path d="M176.042 13.7109C175.803 14.0775 176.601 16.7903 177.799 19.7965C179.716 24.9289 180.035 25.2955 182.351 25.5154C184.826 25.7354 184.906 25.5888 187.062 20.1631C188.5 16.497 189.059 14.3708 188.5 13.8575C187.062 12.5378 185.226 14.0042 184.267 17.3036C183.708 19.0633 182.99 20.7496 182.67 20.8963C182.351 21.1162 181.632 19.6498 180.993 17.7435C180.434 15.8372 179.636 14.0775 179.157 13.7842C178.039 13.051 176.442 13.051 176.042 13.7109Z" fill="#283104"/>
<path d="M192.249 14.0775C189.774 15.3972 188.736 17.0103 188.656 19.6498C188.656 24.5623 195.124 27.4218 199.675 24.4889C202.55 22.6559 201.831 21.7761 197.919 22.216C195.363 22.5826 194.166 22.3627 193.447 21.6295C192.568 20.6763 193.048 20.5297 196.881 20.5297C201.911 20.5297 202.79 19.8698 201.432 16.937C199.995 13.7109 195.603 12.3178 192.249 14.0775ZM197.28 17.3769C197.44 18.0368 196.721 18.3301 195.044 18.3301C192.808 18.3301 192.568 18.1834 193.447 17.2302C194.645 15.9105 196.721 16.0571 197.28 17.3769Z" fill="#283104"/>
<path d="M204.026 13.7842C203.786 14.0042 203.626 16.7903 203.626 19.9431C203.626 25.5888 203.626 25.6621 205.623 25.6621C207.539 25.6621 207.619 25.4421 207.619 21.7028C207.619 19.1366 208.018 17.4502 208.817 16.8636C210.893 15.2506 212.41 17.2302 212.41 21.7028C212.41 25.4421 212.49 25.6621 214.407 25.6621C216.323 25.6621 216.403 25.5154 216.403 20.603C216.403 17.0103 216.084 15.3239 215.205 14.664C214.007 13.7842 204.904 13.051 204.026 13.7842Z" fill="#283104"/>
<path d="M149.42 13.7102C145.587 15.2299 144.789 21.3088 147.983 24.5082C150.857 27.4677 156.367 27.1478 158.044 23.9483C158.843 22.5086 158.683 22.4286 154.69 22.6686C151.896 22.8285 150.458 22.5886 150.219 21.8687C149.979 21.1488 151.097 20.9089 154.291 20.9089C156.687 20.9089 158.843 20.5889 159.082 20.189C159.961 18.8293 157.885 14.75 155.888 13.7902C153.572 12.7503 151.896 12.7503 149.42 13.7102ZM154.611 17.4695C154.77 18.1894 154.052 18.5093 152.375 18.5093C150.139 18.5093 149.899 18.3493 150.778 17.3095C151.975 15.8698 154.052 16.0298 154.611 17.4695Z" fill="#283104"/>
</svg>
